<svg width="24" height="24" viewBox="0 0 24 24" fill="none" xmlns="http://www.w3.org/2000/svg">
<path d="M6 6C5.73478 6 5.48043 6.10536 5.29289 6.29289C5.10536 6.48043 5 6.73478 5 7V8C5 8.26522 5.10536 8.51957 5.29289 8.70711C5.48043 8.89464 5.73478 9 6 9H6.5V18C6.5 18.5304 6.71071 19.0391 7.08579 19.4142C7.46086 19.7893 7.96957 20 8.5 20H14.5C15.0304 20 15.5391 19.7893 15.9142 19.4142C16.2893 19.0391 16.5 18.5304 16.5 18V9H17C17.2652 9 17.5196 8.89464 17.7071 8.70711C17.8946 8.51957 18 8.26522 18 8V7C18 6.73478 17.8946 6.48043 17.7071 6.29289C17.5196 6.10536 17.2652 6 17 6H13.5C13.5 5.73478 13.3946 5.48043 13.2071 5.29289C13.0196 5.10536 12.7652 5 12.5 5H10.5C10.2348 5 9.98043 5.10536 9.79289 5.29289C9.60536 5.48043 9.5 5.73478 9.5 6H6ZM9 10C9.13261 10 9.25979 10.0527 9.35355 10.1464C9.44732 10.2402 9.5 10.3674 9.5 10.5V17.5C9.5 17.6326 9.44732 17.7598 9.35355 17.8536C9.25979 17.9473 9.13261 18 9 18C8.86739 18 8.74021 17.9473 8.64645 17.8536C8.55268 17.7598 8.5 17.6326 8.5 17.5V10.5C8.5 10.3674 8.55268 10.2402 8.64645 10.1464C8.74021 10.0527 8.86739 10 9 10V10ZM11.5 10C11.6326 10 11.7598 10.0527 11.8536 10.1464C11.9473 10.2402 12 10.3674 12 10.5V17.5C12 17.6326 11.9473 17.7598 11.8536 17.8536C11.7598 17.9473 11.6326 18 11.5 18C11.3674 18 11.2402 17.9473 11.1464 17.8536C11.0527 17.7598 11 17.6326 11 17.5V10.5C11 10.3674 11.0527 10.2402 11.1464 10.1464C11.2402 10.0527 11.3674 10 11.5 10V10ZM14.5 10.5V17.5C14.5 17.6326 14.4473 17.7598 14.3536 17.8536C14.2598 17.9473 14.1326 18 14 18C13.8674 18 13.7402 17.9473 13.6464 17.8536C13.5527 17.7598 13.5 17.6326 13.5 17.5V10.5C13.5 10.3674 13.5527 10.2402 13.6464 10.1464C13.7402 10.0527 13.8674 10 14 10C14.1326 10 14.2598 10.0527 14.3536 10.1464C14.4473 10.2402 14.5 10.3674 14.5 10.5V10.5Z" fill="#DF4444"/>
</svg>
